<?xml version="1.0" encoding="utf-8"?>
<!-- Designed by Vexels.com - 2017 All Rights Reserved - https://vexels.com/terms-and-conditions/  -->

<svg version="1.1" id="Layer_1" xmlns="http://www.w3.org/2000/svg" xmlns:xlink="http://www.w3.org/1999/xlink" x="0px" y="0px"
	 width="1200px" height="1200px" viewBox="0 0 1200 1200" enable-background="new 0 0 1200 1200" xml:space="preserve">
<g>
	<g>
		<path fill="#f17a7e" d="M445.072,151.157c42.81-16.892,89.871-13.365,135.109-14.837c55.635-1.793,112.344-5.325,166.531,9.754
			c0-16.6,0-33.2,0-49.8c-32.909,11.805-67.732,9.405-102.064,12.855c-40.555,4.066-80.984,8.827-121.326,14.638
			c-84.162,12.13-166.012,38.563-249.659,53.891c-28.896,5.305-21.896,51.729,6.869,50.718
			c105.694-3.711,211.226-11.129,317.06-8.492c54.781,1.375,110.099,5.538,164.384,12.981c39.409,5.408,87.592,9.4,122.687,29.289
			c2.06-15.735,4.1-31.466,6.16-47.201c-64.059,12.417-132.967,8.686-198.026,14.001c-65.172,5.335-130.077,13.545-195.301,18.315
			c-118.363,8.653-237.076,13.282-352.699,42.295c-32.929,8.274-18.408,54.994,13.724,49.801
			c279.963-45.331,563.152-1.68,844.311,4.309c0-17.217,0-34.42,0-51.637c-151.175,14.943-302.933,20.603-453.792,39.011
			c-157.106,19.17-312.721,48.799-470.294,64.414c2.298,16.901,4.581,33.802,6.869,50.718
			c73.328-14.404,150.441-13.403,224.868-19.282c87.14-6.888,174.416-10.231,261.818-7.272
			c164.015,5.533,327.335,24.869,491.569,29.163c-2.303-16.901-4.587-33.802-6.879-50.718
			c-167.722,23.741-338.941,21.313-507.616,36.825c-160.9,14.783-321.51,33.875-479.18,70c-29.149,6.685-21.613,50.005,6.855,50.719
			c78.628,1.977,157.31-17.164,235.473-24.194c89.768-8.079,179.929-11.426,270.019-12.757c84.76-1.244,169.233,0.141,253.842,5.494
			c84.9,5.364,180.771,4.528,261.309,33.93c0-16.606,0-33.2,0-49.806c-37.475,11.874-76.486,8.079-115.215,7.565
			c-44.714-0.583-89.953,3.202-134.619,5.198c-90.846,4.062-181.703,8.279-272.516,12.826
			c-93.451,4.688-186.756,11.781-280.095,18.247c-75.388,5.213-153.972,5.042-226.747,27.38c-22.954,7.049-26.321,44.647,0,49.801
			c34.673,6.778,67.956,4.154,102.949,0.918c44.296-4.095,89.457-1.875,133.913-2.258c95.729-0.827,191.425-1.696,287.149,1.18
			c94.67,2.833,189.248,8.793,283.865,13.554c37.067,1.866,73.629,3.245,110.726,1.734c38.359-1.564,83.802-7.199,119.685,9.401
			c0-14.866,0-29.732,0-44.598c-59.134,30.242-145.161,19.826-210.192,25.598c-91.586,8.118-183.355,14.186-275.121,19.554
			c-170.855,9.983-344.081,18.325-510.588,60.761c-27.935,7.122-22.527,52.331,6.869,50.718
			c179.265-9.852,357.703-9.299,537.04-12.243c70.589-1.161,141.149-3.619,211.747-3.861c32.005-0.102,64.001,0.582,95.967,2.351
			c28.079,1.54,103.352-5.849,117.799,23.659c5.14-12.636,10.28-25.286,15.43-37.932c-171.491,65.274-357.723,19.953-534.854,39.749
			c-72.741,8.118-145.433,12.777-218.348,19.341c-63.972,5.772-133.064,13.364-189.302,46.788c-15.206,9.046-18.393,36.446,0,44.592
			c96.434,42.694,234.807,13.025,334.287,6.88c87.967-5.446,176.282-4.489,264.36-3.406c78.332,0.947,172.706-12.204,247.462,13.894
			c-2.06-15.731-4.1-31.466-6.15-47.197c-44.666,21.38-121.793,4.829-170.219,5.242c-70.734,0.607-141.381,3.624-211.829,9.896
			c-127.759,11.387-253.744,31.709-379.448,57c-28.691,5.781-22.026,51.919,6.86,50.718c120.656-5.014,241.832-0.826,362.62-3.672
			c94.359-2.225,194.28-12.757,288.353-1.594c-2.274-16.901-4.567-33.802-6.859-50.713
			c-80.743,15.672-164.039,12.582-245.631,21.269c-93.869,9.993-189.841,22.536-282,43.203c-28.391,6.374-22.226,52.132,6.86,50.718
			c159.506-7.734,321.938-31.699,481.118-8.389c-2.06-15.736-4.11-31.466-6.17-47.192c-115.273,59.22-263.159,51.636-387.896,79.173
			c-30.135,6.656-20.623,48.441,6.869,50.719c105.246,8.74,202.539,48.901,306.737,8.992c30.772-11.786,17.431-61.727-13.719-49.801
			c-98.401,37.699-193.426-2.56-293.018-10.829c2.288,16.902,4.567,33.803,6.869,50.719
			c130.402-28.804,279.492-22.362,400.217-84.395c18.616-9.561,16.159-43.923-6.16-47.187
			c-164.437-24.063-330.055-1.434-494.848,6.554c2.297,16.901,4.576,33.807,6.864,50.718
			c96.366-21.613,196.968-35.226,295.34-44.009c77.448-6.918,155.712-5.611,232.295-20.462c31.034-6.034,19.676-47.576-6.869-50.719
			c-94.073-11.169-193.994-0.637-288.353,1.594c-120.788,2.841-241.964-1.346-362.62,3.667c2.298,16.906,4.577,33.808,6.864,50.719
			c140.215-28.217,280.727-49.85,423.492-59.735c70.472-4.878,141.225-5.505,211.833-5.607c47.658-0.069,93.869,9.361,138.505-12
			c21.784-10.44,13.03-40.492-6.179-47.201c-57.986-20.239-119.51-13.491-179.809-14.472c-88.175-1.434-176.32-2.701-264.5-1.098
			c-87.738,1.594-175.188,10.329-262.82,14.653c-36.989,1.827-92.498,3.872-126.65-11.242c0,14.866,0,29.732,0,44.592
			c59.769-35.536,137.523-38.067,205.056-43.202c71.924-5.456,143.412-13.715,215.195-19.646
			c169.845-14.026,345.495,24.761,509.923-37.821c16.284-6.199,23.241-21.963,15.43-37.927
			c-26.798-54.776-111.698-45.74-162.387-49.238c-82.792-5.727-166.478-1.734-249.339,0.244
			c-198.702,4.736-396.757,2.589-595.415,13.51c2.278,16.906,4.567,33.807,6.859,50.718
			c174.796-44.554,356.814-50.485,536.069-61.246c91.809-5.514,183.511-12.384,275.097-20.764
			c66.099-6.053,136.173,2.036,197.064-29.104c16.343-8.361,17.373-36.553,0-44.598c-53.847-24.922-115.108-17.368-172.735-15.434
			c-94.802,3.177-191.546-8.653-286.26-13.089c-102.317-4.79-204.585-5.708-306.99-4.941c-47.905,0.36-95.812,0.894-143.712,1.088
			c-46.313,0.18-95.166,11.597-140.925,2.643c0,16.601,0,33.201,0,49.801c80.373-24.679,169.826-22.523,253.171-28.342
			c93.188-6.491,186.353-13.03,279.677-17.363c90.415-4.208,180.843-8.706,271.282-12.607
			c72.104-3.119,155.664,9.075,225.077-12.898c25.369-8.04,23.736-41.129,0-49.806c-73.688-26.884-158.404-26.923-235.813-32.966
			c-91.294-7.132-182.364-9.046-273.887-8.493c-90.098,0.554-180.158,4.407-269.985,11.358
			c-84.395,6.525-170.16,27.925-254.696,25.797c2.302,16.901,4.581,33.808,6.869,50.719
			c166.245-38.102,335.468-56.427,505.075-71.789c160.332-14.511,322.205-12.461,481.726-35.032
			c29.78-4.217,21.084-49.995-6.85-50.718c-170.987-4.469-341.031-24.087-511.822-29.853c-87.256-2.944-174.698,2.672-261.634,9.541
			c-72.755,5.747-146.749,5.445-218.528,19.535c-28.396,5.577-22.142,53.59,6.86,50.718
			c151.019-14.968,300.367-41.999,450.741-61.926c157.209-20.836,315.632-25.908,473.346-41.498c32.55-3.221,33.861-50.913,0-51.637
			c-286.366-6.102-572.879-48.64-858.035-2.473c4.566,16.601,9.142,33.2,13.724,49.801c122.706-30.8,249.154-33.278,374.643-43.174
			c66.595-5.251,132.904-13.753,199.548-18.718c57.103-4.246,115.516-1.803,171.851-12.718c22.405-4.344,24.63-36.727,6.16-47.197
			c-76.68-43.446-189.447-42.59-275.072-47.391c-118.48-6.645-236.731,2.41-355.119,6.579c2.278,16.901,4.567,33.802,6.86,50.718
			c83.754-15.351,165.574-40.555,249.668-53.905c41.955-6.661,84.405-10.47,126.647-14.706c33.258-3.337,64.768-1.321,96.734-12.777
			c23.261-8.341,25.923-42.581,0-49.8c-53.711-14.949-109.477-13.832-164.763-12.116c-54.294,1.685-112.936-3.075-164.331,17.198
			C400.747,113.429,414.058,163.38,445.072,151.157L445.072,151.157z"/>
		<path fill="#f17a7e" d="M449.581,126.75c42.81-16.892,89.87-13.365,135.109-14.837c55.635-1.793,112.344-5.325,166.531,9.754
			c0-16.6,0-33.2,0-49.8c-32.909,11.805-67.732,9.405-102.064,12.854c-40.555,4.066-80.984,8.828-121.326,14.638
			c-84.162,12.131-166.011,38.564-249.659,53.891c-28.896,5.305-21.895,51.73,6.87,50.719c105.693-3.711,211.225-11.13,317.06-8.492
			c54.775,1.375,110.099,5.538,164.383,12.981c39.41,5.407,87.592,9.4,122.687,29.289c2.06-15.735,4.1-31.466,6.16-47.201
			c-64.06,12.417-132.966,8.686-198.026,14.001c-65.172,5.334-130.076,13.544-195.301,18.315
			c-118.363,8.653-237.076,13.282-352.699,42.295c-32.929,8.273-18.407,54.993,13.724,49.801
			c279.964-45.332,563.153-1.681,844.311,4.309c0-17.217,0-34.42,0-51.638c-151.175,14.944-302.932,20.603-453.791,39.011
			c-157.107,19.171-312.722,48.8-470.296,64.415c2.298,16.901,4.582,33.802,6.869,50.718
			c73.329-14.404,150.442-13.404,224.868-19.282c87.14-6.889,174.416-10.231,261.819-7.272
			c164.014,5.533,327.335,24.869,491.568,29.163c-2.302-16.901-4.586-33.802-6.879-50.718
			c-167.721,23.741-338.941,21.313-507.615,36.824c-160.901,14.784-321.511,33.876-479.181,70.001
			c-29.148,6.685-21.613,50.005,6.855,50.718c78.628,1.978,157.31-17.164,235.473-24.193c89.769-8.079,179.93-11.426,270.019-12.757
			c84.759-1.244,169.232,0.14,253.841,5.494c84.9,5.364,180.771,4.528,261.309,33.93c0-16.606,0-33.2,0-49.806
			c-37.476,11.874-76.486,8.079-115.216,7.565c-44.714-0.583-89.953,3.201-134.618,5.198
			c-90.847,4.061-181.703,8.279-272.517,12.826c-93.451,4.688-186.756,11.781-280.094,18.247
			c-75.389,5.212-153.973,5.042-226.748,27.38c-22.954,7.049-26.321,44.646,0,49.801c34.673,6.777,67.956,4.154,102.949,0.918
			c44.296-4.095,89.457-1.875,133.914-2.26c95.729-0.826,191.424-1.695,287.148,1.181c94.671,2.833,189.248,8.793,283.865,13.554
			c37.068,1.866,73.63,3.245,110.726,1.734c38.36-1.564,83.802-7.199,119.685,9.4c0-14.865,0-29.732,0-44.597
			c-59.133,30.242-145.161,19.826-210.192,25.598c-91.585,8.118-183.355,14.185-275.121,19.554
			c-170.854,9.983-344.081,18.325-510.588,60.76c-27.934,7.122-22.527,52.332,6.869,50.719
			c179.265-9.853,357.704-9.299,537.041-12.243c70.588-1.161,141.148-3.62,211.746-3.862c32.005-0.102,64.001,0.583,95.967,2.352
			c28.08,1.539,103.352-5.849,117.799,23.659c5.14-12.636,10.28-25.286,15.43-37.932c-171.491,65.273-357.723,19.953-534.854,39.749
			c-72.74,8.118-145.433,12.777-218.348,19.341c-63.972,5.771-133.064,13.364-189.302,46.788c-15.206,9.046-18.393,36.446,0,44.592
			c96.434,42.693,234.807,13.025,334.288,6.879c87.966-5.445,176.281-4.488,264.359-3.406
			c78.332,0.948,172.706-12.203,247.463,13.894c-2.06-15.73-4.101-31.466-6.151-47.196c-44.666,21.38-121.793,4.828-170.219,5.241
			c-70.734,0.608-141.381,3.625-211.828,9.897c-127.76,11.387-253.745,31.709-379.448,57c-28.692,5.781-22.027,51.918,6.859,50.718
			c120.657-5.013,241.833-0.826,362.62-3.672c94.359-2.226,194.281-12.757,288.353-1.594c-2.273-16.901-4.566-33.802-6.859-50.713
			c-80.742,15.672-164.039,12.582-245.631,21.269c-93.869,9.992-189.841,22.536-282,43.202c-28.391,6.375-22.225,52.133,6.86,50.719
			c159.506-7.735,321.938-31.699,481.118-8.39c-2.06-15.735-4.109-31.466-6.17-47.191c-115.273,59.22-263.159,51.636-387.896,79.173
			c-30.135,6.655-20.623,48.44,6.869,50.718c105.247,8.741,202.54,48.902,306.737,8.993c30.772-11.786,17.431-61.728-13.719-49.801
			c-98.406,37.698-193.426-2.56-293.018-10.829c2.288,16.901,4.567,33.803,6.87,50.719
			c130.401-28.805,279.492-22.362,400.217-84.396c18.616-9.56,16.158-43.922-6.161-47.186
			c-164.437-24.063-330.055-1.434-494.848,6.554c2.297,16.901,4.577,33.807,6.864,50.718
			c96.366-21.614,196.968-35.226,295.34-44.009c77.448-6.918,155.713-5.611,232.296-20.463c31.033-6.033,19.675-47.575-6.87-50.718
			c-94.072-11.169-193.994-0.637-288.353,1.593c-120.787,2.843-241.963-1.345-362.62,3.668c2.298,16.906,4.577,33.807,6.865,50.718
			c140.214-28.216,280.726-49.849,423.491-59.735c70.472-4.877,141.225-5.504,211.833-5.606c47.659-0.069,93.869,9.361,138.505-12
			c21.784-10.44,13.03-40.492-6.18-47.201c-57.986-20.239-119.509-13.491-179.808-14.472c-88.175-1.434-176.321-2.701-264.5-1.099
			c-87.738,1.594-175.189,10.329-262.819,14.653c-36.99,1.827-92.499,3.871-126.651-11.242c0,14.865,0,29.732,0,44.592
			c59.769-35.537,137.523-38.068,205.056-43.203c71.924-5.455,143.412-13.714,215.195-19.646
			c169.845-14.025,345.495,24.762,509.923-37.82c16.284-6.2,23.241-21.964,15.43-37.928
			c-26.798-54.775-111.698-45.739-162.388-49.237c-82.792-5.728-166.478-1.734-249.338,0.243
			c-198.702,4.737-396.758,2.59-595.416,13.51c2.278,16.907,4.567,33.808,6.86,50.719c174.794-44.554,356.814-50.485,536.069-61.247
			c91.808-5.514,183.51-12.383,275.096-20.763c66.099-6.053,136.173,2.036,197.064-29.105c16.343-8.36,17.373-36.552,0-44.597
			c-53.847-24.922-115.108-17.368-172.735-15.435c-94.801,3.178-191.546-8.652-286.26-13.087
			c-102.317-4.79-204.585-5.708-306.99-4.941c-47.905,0.36-95.812,0.894-143.713,1.088c-46.313,0.18-95.166,11.596-140.925,2.643
			c0,16.601,0,33.2,0,49.801c80.373-24.68,169.826-22.523,253.171-28.342c93.188-6.491,186.353-13.03,279.677-17.364
			c90.414-4.207,180.844-8.706,271.282-12.606c72.104-3.119,155.664,9.075,225.077-12.898c25.369-8.04,23.736-41.129,0-49.806
			c-73.688-26.884-158.404-26.923-235.813-32.967c-91.294-7.132-182.364-9.045-273.886-8.492
			c-90.099,0.554-180.159,4.407-269.986,11.358c-84.395,6.525-170.16,27.925-254.696,25.797c2.303,16.901,4.582,33.807,6.869,50.718
			c166.245-38.101,335.468-56.426,505.075-71.788c160.332-14.511,322.205-12.461,481.726-35.032
			c29.78-4.217,21.084-49.995-6.85-50.718c-170.986-4.47-341.031-24.087-511.822-29.853c-87.256-2.944-174.698,2.672-261.634,9.542
			c-72.755,5.747-146.749,5.445-218.527,19.534c-28.396,5.578-22.144,53.591,6.859,50.719
			c151.019-14.968,300.368-41.998,450.741-61.926c157.209-20.837,315.633-25.908,473.346-41.498c32.55-3.222,33.862-50.913,0-51.638
			c-286.366-6.101-572.879-48.639-858.036-2.472c4.567,16.601,9.143,33.2,13.724,49.801c122.706-30.8,249.154-33.279,374.644-43.175
			c66.595-5.251,132.903-13.753,199.547-18.718c57.103-4.246,115.517-1.803,171.852-12.719c22.405-4.343,24.631-36.727,6.16-47.196
			c-76.68-43.446-189.447-42.591-275.071-47.391c-118.481-6.646-236.732,2.41-355.119,6.578c2.278,16.902,4.567,33.803,6.859,50.719
			c83.754-15.352,165.574-40.556,249.669-53.906c41.955-6.66,84.405-10.469,126.646-14.705c33.258-3.337,64.768-1.321,96.734-12.777
			c23.261-8.342,25.923-42.582,0-49.8c-53.711-14.949-109.482-13.832-164.762-12.116c-54.295,1.685-112.937-3.075-164.331,17.197
			C405.255,89.022,418.566,138.973,449.581,126.75L449.581,126.75z"/>
	</g>
	<path fill="#FFFFFF" d="M765.533,342.994H400.644c-38.918,0-70.467,33.269-70.467,74.3v372.967c0,41.032,31.549,74.3,70.467,74.3
		h364.888c38.923,0,70.472-33.268,70.472-74.3V417.294C836.005,376.263,804.456,342.994,765.533,342.994z M684.781,418.587
		c0,0,1.302-14.302,14.302-14.302h70.239c0,0,13.01,1.302,13.01,13c0,11.718,0,72.853,0,72.853s-2.614,11.038-11.067,11.038
		s-73.483,0-73.483,0s-13.001-0.642-13.001-13.642V418.587z M583.893,504.653c55.149,0,99.839,44.705,99.839,99.844
		c0,55.14-44.69,99.844-99.839,99.844c-55.13,0-99.844-44.705-99.844-99.844C484.049,549.358,528.763,504.653,583.893,504.653z
		 M783.576,788.076c0,0-0.923,15.197-15.187,15.197H397.112c0,0-14.501-2.76-14.501-14.506c0-11.737,0.534-225.893,0.534-225.893
		h49.29c0,0-28.094,96.453,50.35,161.114c0,0,41.877,38.165,103.886,37.116c0,0,75.267-3.187,116.065-55.121
		c0,0,52.322-61.455,32.996-144.267h47.843V788.076z"/>
</g>
</svg>
