<?xml version="1.0" encoding="utf-8"?>
<!-- Designed by Vexels.com - 2017 All Rights Reserved - https://vexels.com/terms-and-conditions/  -->

<svg version="1.1" id="Layer_1" xmlns="http://www.w3.org/2000/svg" xmlns:xlink="http://www.w3.org/1999/xlink" x="0px" y="0px"
	 width="1200px" height="1200px" viewBox="0 0 1200 1200" enable-background="new 0 0 1200 1200" xml:space="preserve">
<g>
	<g>
		<path fill="#f17a7e" d="M446.693,143.522c42.996-16.961,90.236-13.42,135.675-14.898c55.859-1.8,112.811-5.347,167.212,9.796
			c0-16.674,0-33.338,0-50.011c-33.029,11.859-68,9.449-102.489,12.913c-40.723,4.083-81.318,8.863-121.816,14.698
			c-84.518,12.18-166.705,38.723-250.696,54.113c-29.005,5.327-21.976,51.942,6.892,50.927
			c106.144-3.721,212.105-11.175,318.365-8.522c55.011,1.376,110.577,5.557,165.076,13.03c39.566,5.43,87.942,9.439,123.182,29.411
			c2.068-15.801,4.131-31.596,6.2-47.396c-64.338,12.469-133.514,8.722-198.851,14.058c-65.435,5.357-130.612,13.601-196.115,18.391
			c-118.835,8.688-238.046,13.336-354.15,42.468c-33.054,8.303-18.469,55.221,13.795,50.006
			c281.116-45.517,565.476-1.687,847.766,4.327c0-17.288,0-34.566,0-51.849c-151.778,15.005-304.165,20.688-455.649,39.171
			c-157.743,19.248-313.998,49.001-472.219,64.679c2.297,16.971,4.595,33.942,6.882,50.927
			c73.635-14.463,151.075-13.458,225.798-19.365c87.504-6.912,175.143-10.264,262.89-7.298
			c164.71,5.557,328.692,24.971,493.587,29.284c-2.288-16.972-4.591-33.942-6.888-50.928
			c-168.417,23.839-340.336,21.4-509.718,36.976c-161.562,14.844-322.828,34.015-481.142,70.288
			c-29.264,6.713-21.708,50.206,6.888,50.928c78.947,1.985,157.958-17.234,236.437-24.294
			c90.127-8.112,180.675-11.473,271.134-12.81c85.104-1.249,169.929,0.142,254.891,5.518c85.225,5.385,181.509,4.546,262.383,34.063
			c0-16.664,0-33.337,0-50.006c-37.63,11.923-76.801,8.113-115.708,7.596c-44.903-0.585-90.308,3.21-135.153,5.22
			c-91.221,4.078-182.461,8.312-273.652,12.878c-93.825,4.712-187.529,11.83-281.252,18.322
			c-75.684,5.234-154.602,5.063-227.666,27.493c-23.05,7.078-26.444,44.83,0,50.005c34.814,6.805,68.23,4.171,103.371,0.922
			c44.479-4.112,89.826-1.883,134.451-2.268c96.132-0.834,192.227-1.702,288.34,1.185c95.069,2.844,190.036,8.829,285.027,13.61
			c37.225,1.873,73.948,3.259,111.182,1.741c38.513-1.57,84.163-7.234,120.173,9.44c0-14.928,0-29.854,0-44.782
			c-59.362,30.367-145.743,19.908-211.042,25.698c-91.956,8.156-184.104,14.249-276.267,19.639
			c-171.557,10.024-345.492,18.4-512.683,61.011c-28.055,7.151-22.615,52.551,6.897,50.927
			c180.002-9.892,359.185-9.337,539.265-12.292c70.879-1.166,141.714-3.634,212.612-3.878c32.142-0.103,64.265,0.585,96.367,2.361
			c28.191,1.546,103.777-5.873,118.28,23.756c5.166-12.688,10.327-25.386,15.493-38.088
			c-172.193,65.543-359.195,20.03-537.06,39.912c-73.036,8.152-146.036,12.83-219.247,19.42
			c-64.24,5.795-133.612,13.42-190.076,46.981c-15.273,9.083-18.473,36.596,0,44.777c96.821,42.869,235.769,13.077,335.657,6.907
			c88.328-5.469,177.017-4.508,265.442-3.42c78.655,0.951,173.432-12.254,248.491,13.952c-2.063-15.796-4.132-31.596-6.195-47.391
			c-44.835,21.468-122.27,4.849-170.9,5.264c-71.03,0.609-141.957,3.639-212.705,9.937
			c-128.294,11.434-254.788,31.839-381.004,57.235c-28.82,5.805-22.127,52.133,6.883,50.928
			c121.157-5.034,242.822-0.83,364.117-3.688c94.738-2.234,195.075-12.81,289.545-1.6c-2.298-16.972-4.596-33.942-6.888-50.928
			c-81.084,15.737-164.719,12.639-246.656,21.361c-94.26,10.034-190.612,22.629-283.15,43.381
			c-28.518,6.4-22.322,52.346,6.882,50.927c160.158-7.766,323.258-31.829,483.109-8.424c-2.069-15.801-4.132-31.596-6.2-47.386
			c-115.748,59.465-264.257,51.849-389.493,79.498c-30.259,6.684-20.717,48.635,6.888,50.928
			c105.679,8.776,203.383,49.103,308.014,9.029c30.888-11.834,17.497-61.986-13.786-50.006
			c-98.816,37.854-194.218-2.571-294.228-10.874c2.308,16.972,4.596,33.942,6.892,50.928
			c130.954-28.922,280.662-22.454,401.883-84.742c18.693-9.601,16.219-44.104-6.2-47.381
			c-165.105-24.166-331.409-1.439-496.88,6.581c2.303,16.971,4.601,33.946,6.888,50.927c96.762-21.702,197.773-35.371,296.569-44.19
			c77.758-6.946,156.339-5.635,233.242-20.546c31.171-6.059,19.757-47.772-6.887-50.928c-94.47-11.215-194.807-0.639-289.545,1.6
			c-121.295,2.853-242.96-1.352-364.117,3.682c2.302,16.971,4.6,33.947,6.887,50.928c140.792-28.333,281.877-50.055,425.24-59.981
			c70.767-4.903,141.806-5.528,212.705-5.63c47.859-0.073,94.259,9.4,139.06-12.049c21.893-10.483,13.093-40.659-6.19-47.395
			c-58.216-20.322-119.992-13.547-180.549-14.532c-88.528-1.439-177.046-2.712-265.593-1.102
			c-88.104,1.599-175.909,10.37-263.891,14.712c-37.146,1.834-92.893,3.888-127.172-11.288c0,14.928,0,29.854,0,44.777
			c60.011-35.684,138.09-38.225,205.885-43.381c72.225-5.479,144.002-13.771,216.086-19.727
			c170.544-14.088,346.911,24.863,512.026-37.977c16.356-6.225,23.346-22.054,15.497-38.083
			c-26.927-55.001-112.157-45.928-163.051-49.439c-83.142-5.751-167.173-1.742-250.373,0.244
			c-199.53,4.755-398.385,2.599-597.87,13.566c2.298,16.976,4.586,33.946,6.892,50.927c175.52-44.737,358.287-50.693,538.28-61.498
			c92.182-5.537,184.265-12.435,276.233-20.849c66.372-6.078,136.714,2.043,197.856-29.225c16.42-8.401,17.459-36.704,0-44.782
			c-54.074-25.024-115.572-17.439-173.437-15.492c-95.181,3.185-192.339-8.694-287.437-13.147
			c-102.738-4.809-205.422-5.732-308.258-4.96c-48.103,0.361-96.206,0.897-144.309,1.092c-46.489,0.181-95.543,11.645-141.5,2.654
			c0,16.668,0,33.337,0,50.005c80.698-24.78,170.534-22.614,254.213-28.458c93.567-6.522,187.13-13.083,280.823-17.434
			c90.805-4.225,181.592-8.742,272.408-12.659c72.405-3.132,156.294,9.112,225.997-12.956c25.488-8.068,23.85-41.293,0-50.006
			c-73.986-26.995-159.041-27.034-236.783-33.102c-91.655-7.161-183.1-9.083-275.014-8.527
			c-90.469,0.555-180.889,4.424-271.09,11.405c-84.737,6.551-170.865,28.039-255.739,25.902c2.297,16.972,4.6,33.947,6.887,50.928
			c166.939-38.259,336.843-56.659,507.167-72.083c160.993-14.571,323.516-12.518,483.703-35.181
			c29.903-4.23,21.172-50.196-6.897-50.928c-171.67-4.483-342.404-24.181-513.923-29.971c-87.606-2.956-175.402,2.683-262.696,9.581
			c-73.055,5.77-147.363,5.464-219.427,19.615c-28.517,5.6-22.24,53.81,6.888,50.927c151.636-15.03,301.593-42.171,452.58-62.181
			c157.876-20.922,316.95-26.015,475.289-41.669c32.698-3.229,34.025-51.123,0-51.849c-287.525-6.127-575.216-48.845-861.561-2.484
			c4.6,16.669,9.195,33.338,13.795,50.006c123.202-30.927,250.169-33.415,376.175-43.351c66.87-5.279,133.46-13.816,200.379-18.796
			c57.337-4.264,115.991-1.809,172.549-12.771c22.492-4.361,24.741-36.878,6.19-47.391
			c-76.997-43.625-190.222-42.766-276.209-47.586c-118.967-6.673-237.705,2.42-356.585,6.601
			c2.303,16.976,4.591,33.946,6.898,50.927c84.094-15.409,166.251-40.717,250.686-54.127c42.136-6.684,84.751-10.508,127.181-14.762
			c33.401-3.351,65.035-1.327,97.138-12.829c23.341-8.376,26.024-42.757,0-50.011c-53.947-15.006-109.948-13.883-165.451-12.161
			c-54.522,1.693-113.401-3.088-165.007,17.268C402.186,105.639,415.561,155.796,446.693,143.522L446.693,143.522z"/>
		<path fill="#f17a7e" d="M446.693,130.591c42.996-16.962,90.236-13.42,135.675-14.898c55.859-1.8,112.811-5.347,167.212,9.795
			c0-16.673,0-33.337,0-50.01c-33.029,11.859-68,9.449-102.489,12.912c-40.723,4.083-81.318,8.864-121.816,14.698
			C440.757,115.269,358.57,141.81,274.579,157.2c-29.005,5.327-21.976,51.943,6.892,50.928
			c106.144-3.723,212.105-11.176,318.365-8.522c55.011,1.376,110.577,5.556,165.076,13.029c39.566,5.429,87.942,9.439,123.182,29.41
			c2.068-15.8,4.131-31.596,6.2-47.395c-64.338,12.468-133.514,8.722-198.851,14.058c-65.435,5.356-130.612,13.6-196.115,18.39
			c-118.835,8.689-238.046,13.337-354.15,42.469c-33.054,8.303-18.469,55.22,13.795,50.006
			c281.116-45.518,565.476-1.688,847.766,4.327c0-17.288,0-34.567,0-51.85c-151.778,15.006-304.165,20.688-455.649,39.171
			c-157.743,19.249-313.998,49.001-472.219,64.68c2.297,16.971,4.595,33.941,6.882,50.927
			c73.635-14.463,151.075-13.459,225.798-19.366c87.504-6.912,175.143-10.263,262.89-7.297
			c164.71,5.556,328.692,24.971,493.587,29.283c-2.288-16.971-4.591-33.941-6.888-50.927
			c-168.417,23.839-340.336,21.4-509.718,36.975c-161.562,14.845-322.828,34.015-481.142,70.289
			c-29.264,6.712-21.708,50.206,6.888,50.927c78.947,1.986,157.958-17.234,236.437-24.293
			c90.127-8.112,180.675-11.473,271.134-12.81c85.104-1.249,169.929,0.141,254.891,5.517c85.225,5.386,181.509,4.547,262.383,34.064
			c0-16.664,0-33.337,0-50.006c-37.63,11.922-76.801,8.112-115.708,7.596c-44.903-0.585-90.308,3.21-135.153,5.219
			c-91.221,4.078-182.461,8.313-273.652,12.879c-93.825,4.712-187.529,11.83-281.252,18.322
			c-75.684,5.234-154.602,5.063-227.666,27.492c-23.05,7.078-26.444,44.83,0,50.006c34.814,6.805,68.23,4.171,103.371,0.922
			c44.479-4.112,89.826-1.883,134.451-2.269c96.132-0.834,192.227-1.702,288.34,1.186c95.069,2.844,190.036,8.829,285.027,13.61
			c37.225,1.873,73.948,3.259,111.182,1.741c38.513-1.57,84.163-7.234,120.173,9.439c0-14.927,0-29.853,0-44.781
			c-59.362,30.367-145.743,19.908-211.042,25.698c-91.956,8.156-184.104,14.248-276.267,19.639
			c-171.557,10.024-345.492,18.4-512.683,61.01c-28.055,7.151-22.615,52.552,6.897,50.928
			c180.002-9.892,359.185-9.337,539.265-12.293c70.879-1.166,141.714-3.635,212.612-3.878c32.142-0.102,64.265,0.585,96.367,2.362
			c28.191,1.545,103.777-5.873,118.28,23.756c5.166-12.688,10.327-25.385,15.493-38.088
			c-172.193,65.542-359.195,20.03-537.06,39.913c-73.036,8.151-146.036,12.83-219.247,19.42
			c-64.24,5.794-133.612,13.419-190.076,46.981c-15.273,9.083-18.473,36.596,0,44.776c96.821,42.869,235.769,13.078,335.657,6.907
			c88.328-5.468,177.017-4.507,265.442-3.42c78.655,0.952,173.432-12.253,248.491,13.952c-2.063-15.795-4.132-31.596-6.195-47.39
			c-44.835,21.468-122.27,4.848-170.9,5.263c-71.03,0.61-141.957,3.639-212.705,9.937
			c-128.294,11.434-254.788,31.839-381.004,57.235c-28.82,5.804-22.127,52.132,6.883,50.927
			c121.157-5.034,242.822-0.829,364.117-3.687c94.738-2.234,195.075-12.81,289.545-1.6c-2.298-16.971-4.596-33.941-6.888-50.927
			c-81.084,15.737-164.719,12.639-246.656,21.361c-94.26,10.033-190.612,22.629-283.15,43.38
			c-28.518,6.401-22.322,52.347,6.882,50.928c160.158-7.765,323.258-31.829,483.109-8.425c-2.069-15.8-4.132-31.596-6.2-47.385
			c-115.748,59.464-264.257,51.849-389.493,79.498c-30.259,6.682-20.717,48.635,6.888,50.927
			c105.679,8.776,203.383,49.104,308.014,9.03c30.888-11.835,17.497-61.986-13.786-50.006
			c-98.816,37.853-194.218-2.571-294.228-10.874c2.308,16.971,4.596,33.942,6.892,50.928
			c130.954-28.923,280.662-22.454,401.883-84.743c18.693-9.6,16.219-44.102-6.2-47.38c-165.105-24.167-331.409-1.44-496.88,6.581
			c2.303,16.971,4.601,33.946,6.888,50.927c96.762-21.703,197.773-35.371,296.569-44.19c77.758-6.946,156.339-5.635,233.242-20.547
			c31.171-6.058,19.757-47.771-6.887-50.927c-94.47-11.215-194.807-0.639-289.545,1.599c-121.295,2.854-242.96-1.351-364.117,3.683
			c2.302,16.971,4.6,33.946,6.887,50.927c140.792-28.332,281.877-50.054,425.24-59.981c70.767-4.902,141.806-5.527,212.705-5.629
			c47.859-0.074,94.259,9.4,139.06-12.049c21.893-10.483,13.093-40.659-6.19-47.395c-58.216-20.322-119.992-13.547-180.549-14.532
			c-88.528-1.44-177.046-2.712-265.593-1.103c-88.104,1.601-175.909,10.371-263.891,14.713
			c-37.146,1.834-92.893,3.887-127.172-11.288c0,14.927,0,29.854,0,44.776c60.011-35.684,138.09-38.224,205.885-43.381
			c72.225-5.478,144.002-13.771,216.086-19.727c170.544-14.087,346.911,24.864,512.026-37.975
			c16.356-6.225,23.346-22.055,15.497-38.083c-26.927-55.001-112.157-45.928-163.051-49.44
			c-83.142-5.751-167.173-1.741-250.373,0.244c-199.53,4.756-398.385,2.601-597.87,13.566c2.298,16.977,4.586,33.947,6.892,50.928
			c175.52-44.737,358.287-50.693,538.28-61.499c92.182-5.536,184.265-12.434,276.233-20.849
			c66.372-6.078,136.714,2.044,197.856-29.225c16.42-8.4,17.459-36.703,0-44.781c-54.074-25.025-115.572-17.439-173.437-15.493
			c-95.181,3.186-192.339-8.693-287.437-13.146c-102.738-4.809-205.422-5.732-308.258-4.961
			c-48.103,0.362-96.206,0.898-144.309,1.093c-46.489,0.181-95.543,11.644-141.5,2.653c0,16.669,0,33.337,0,50.006
			c80.698-24.781,170.534-22.615,254.213-28.459c93.567-6.523,187.13-13.083,280.823-17.435
			c90.805-4.224,181.592-8.742,272.408-12.658c72.405-3.132,156.294,9.112,225.997-12.956c25.488-8.068,23.85-41.293,0-50.006
			c-73.986-26.995-159.041-27.034-236.783-33.103c-91.655-7.161-183.1-9.082-275.014-8.527
			c-90.469,0.556-180.889,4.425-271.09,11.405C248.17,465.512,162.042,487,77.168,484.863c2.297,16.971,4.6,33.946,6.887,50.928
			c166.939-38.259,336.843-56.659,507.167-72.084c160.993-14.571,323.516-12.517,483.703-35.181
			c29.903-4.229,21.172-50.196-6.897-50.927c-171.67-4.484-342.404-24.181-513.923-29.971
			c-87.606-2.956-175.402,2.683-262.696,9.581c-73.055,5.771-147.363,5.463-219.427,19.614c-28.517,5.601-22.24,53.811,6.888,50.928
			c151.636-15.029,301.593-42.171,452.58-62.181c157.876-20.923,316.95-26.015,475.289-41.669c32.698-3.23,34.025-51.123,0-51.85
			c-287.525-6.126-575.216-48.844-861.561-2.482c4.6,16.669,9.195,33.337,13.795,50.006
			c123.202-30.927,250.169-33.416,376.175-43.352c66.87-5.278,133.46-13.815,200.379-18.795
			c57.337-4.264,115.991-1.81,172.549-12.771c22.492-4.362,24.741-36.879,6.19-47.391c-76.997-43.625-190.222-42.767-276.209-47.586
			c-118.967-6.674-237.705,2.42-356.585,6.601c2.303,16.976,4.591,33.946,6.898,50.927c84.094-15.41,166.251-40.718,250.686-54.128
			c42.136-6.683,84.751-10.507,127.181-14.761c33.401-3.351,65.035-1.327,97.138-12.83c23.341-8.376,26.024-42.757,0-50.01
			c-53.947-15.006-109.948-13.884-165.451-12.161c-54.522,1.692-113.401-3.088-165.007,17.268
			C402.186,92.707,415.561,142.864,446.693,130.591L446.693,130.591z"/>
	</g>
	<path fill="#FFFFFF" d="M519.685,882.628v-260.52h-86.279V521.307h86.279v-90.166c0,0,3.878-104.699,105.674-117.3h102.743v93.065
		h-65.913c0,0-34.897-0.971-37.805,40.713v74.64H726.17l-13.571,99.85h-88.215l-0.108,260.686L519.685,882.628z"/>
</g>
</svg>
