<?xml version="1.0" encoding="utf-8"?>
<!-- Designed by Vexels.com - 2017 All Rights Reserved - https://vexels.com/terms-and-conditions/  -->

<svg version="1.1" id="Layer_1" xmlns="http://www.w3.org/2000/svg" xmlns:xlink="http://www.w3.org/1999/xlink" x="0px" y="0px"
	 width="1200px" height="1200px" viewBox="0 0 1200 1200" enable-background="new 0 0 1200 1200" xml:space="preserve">
<g>
	<g>
		<path fill="#f17a7e" d="M446.702,145.136c42.986-16.956,90.235-13.414,135.66-14.898c55.864-1.795,112.811-5.346,167.231,9.796
			c0-16.664,0-33.337,0-50.001c-33.044,11.854-68.02,9.444-102.499,12.908c-40.723,4.078-81.317,8.858-121.825,14.693
			c-84.508,12.185-166.695,38.723-250.686,54.118c-29.015,5.327-21.981,51.942,6.897,50.928
			c106.128-3.727,212.09-11.181,318.364-8.528c55.006,1.376,110.567,5.562,165.065,13.034c39.571,5.425,87.952,9.435,123.191,29.406
			c2.069-15.796,4.117-31.59,6.186-47.386c-64.323,12.459-133.514,8.713-198.841,14.05c-65.445,5.356-130.617,13.6-196.109,18.39
			c-118.85,8.693-238.051,13.337-354.15,42.478c-33.064,8.303-18.479,55.221,13.785,50.001
			c281.115-45.522,565.469-1.688,847.774,4.322c0-17.287,0-34.556,0-51.844c-151.786,15.004-304.169,20.683-455.653,39.171
			c-157.757,19.249-314.012,48.996-472.228,64.674c2.312,16.976,4.595,33.952,6.897,50.928
			c73.63-14.459,151.065-13.454,225.797-19.356c87.493-6.917,175.134-10.273,262.89-7.308
			c164.695,5.561,328.686,24.976,493.586,29.289c-2.303-16.975-4.586-33.942-6.897-50.928
			c-168.412,23.844-340.326,21.395-509.713,36.976c-161.562,14.839-322.822,34.01-481.146,70.283
			c-29.269,6.723-21.698,50.215,6.888,50.928c78.947,1.99,157.952-17.229,236.431-24.292
			c90.137-8.108,180.674-11.474,271.134-12.811c85.114-1.239,169.944,0.147,254.891,5.523
			c85.239,5.385,181.513,4.546,262.383,34.068c0-16.673,0-33.337,0-50.01c-37.63,11.921-76.801,8.117-115.699,7.6
			c-44.898-0.595-90.303,3.21-135.162,5.21c-91.22,4.078-182.451,8.312-273.641,12.879c-93.835,4.711-187.524,11.834-281.251,18.321
			c-75.699,5.24-154.598,5.064-227.671,27.493c-23.054,7.083-26.439,44.83,0,50.011c34.81,6.799,68.225,4.165,103.367,0.917
			c44.478-4.108,89.825-1.883,134.46-2.264c96.127-0.829,192.216-1.707,288.334,1.181c95.064,2.848,190.031,8.829,285.036,13.61
			c37.22,1.873,73.932,3.258,111.181,1.746c38.508-1.571,84.148-7.23,120.168,9.434c0-14.927,0-29.854,0-44.781
			c-59.367,30.371-145.748,19.912-211.046,25.707c-91.962,8.146-184.11,14.244-276.257,19.63
			c-171.572,10.029-345.496,18.4-512.687,61.015c-28.05,7.151-22.625,52.546,6.897,50.927
			c180.002-9.892,359.174-9.336,539.254-12.292c70.879-1.161,141.728-3.64,212.617-3.883c32.136-0.098,64.264,0.596,96.362,2.361
			c28.195,1.552,103.777-5.873,118.284,23.757c5.161-12.684,10.322-25.386,15.493-38.079
			c-172.196,65.533-359.194,20.03-537.059,39.903c-73.035,8.156-146.031,12.83-219.251,19.424
			c-64.225,5.795-133.611,13.415-190.07,46.977c-15.278,9.082-18.478,36.595,0,44.781c96.83,42.869,235.768,13.073,335.651,6.907
			c88.333-5.464,177.017-4.508,265.456-3.425c78.655,0.956,173.416-12.253,248.481,13.961c-2.068-15.806-4.127-31.6-6.185-47.396
			c-44.84,21.464-122.285,4.849-170.91,5.269c-71.024,0.604-141.962,3.629-212.704,9.931
			c-128.284,11.434-254.793,31.834-381.009,57.23c-28.81,5.805-22.117,52.138,6.888,50.928
			c121.152-5.024,242.831-0.829,364.111-3.678c94.752-2.244,195.084-12.81,289.544-1.599c-2.283-16.976-4.586-33.952-6.888-50.928
			c-81.074,15.737-164.714,12.635-246.636,21.356c-94.264,10.029-190.626,22.634-283.163,43.376
			c-28.507,6.4-22.322,52.351,6.878,50.928c160.167-7.766,323.272-31.825,483.107-8.42c-2.068-15.796-4.127-31.6-6.195-47.386
			c-115.748,59.464-264.247,51.855-389.496,79.494c-30.254,6.682-20.703,48.644,6.897,50.927
			c105.679,8.781,203.377,49.104,308.003,9.034c30.898-11.835,17.502-61.981-13.776-50.001
			c-98.811,37.854-194.226-2.575-294.227-10.877c2.303,16.966,4.586,33.941,6.897,50.927
			c130.938-28.927,280.647-22.449,401.868-84.742c18.693-9.6,16.224-44.098-6.185-47.386
			c-165.114-24.156-331.418-1.434-496.892,6.586c2.312,16.976,4.605,33.942,6.897,50.928
			c96.761-21.698,197.778-35.377,296.559-44.196c77.767-6.946,156.353-5.629,233.25-20.546c31.162-6.058,19.757-47.767-6.897-50.928
			c-94.46-11.209-194.792-0.633-289.544,1.6c-121.28,2.858-242.959-1.347-364.111,3.687c2.312,16.977,4.595,33.942,6.897,50.928
			c140.792-28.332,281.876-50.059,425.234-59.981c70.762-4.897,141.806-5.532,212.704-5.63
			c47.854-0.068,94.255,9.395,139.064-12.048c21.883-10.488,13.093-40.665-6.185-47.396
			c-58.235-20.322-120.011-13.551-180.558-14.537c-88.537-1.434-177.046-2.711-265.592-1.102
			c-88.099,1.599-175.905,10.371-263.896,14.722c-37.151,1.824-92.888,3.883-127.172-11.297c0,14.927,0,29.853,0,44.781
			c60.011-35.688,138.089-38.225,205.895-43.386c72.225-5.473,144.002-13.766,216.08-19.727
			c170.548-14.078,346.911,24.869,512.025-37.971c16.351-6.224,23.336-22.059,15.502-38.088
			c-26.927-54.996-112.167-45.923-163.065-49.434c-83.133-5.756-167.163-1.746-250.364,0.244
			c-199.524,4.761-398.394,2.596-597.869,13.571c2.293,16.966,4.586,33.941,6.887,50.927
			c175.514-44.742,358.287-50.703,538.288-61.503c92.177-5.542,184.265-12.439,276.217-20.849
			c66.372-6.078,136.724,2.039,197.866-29.23c16.42-8.39,17.454-36.694,0-44.781c-54.069-25.025-115.572-17.434-173.436-15.493
			c-95.191,3.19-192.333-8.683-287.436-13.141c-102.743-4.81-205.426-5.737-308.257-4.966c-48.098,0.371-96.206,0.907-144.303,1.093
			c-46.508,0.185-95.553,11.649-141.504,2.653c0,16.673,0,33.337,0,50.011c80.703-24.781,170.528-22.615,254.217-28.459
			c93.562-6.517,187.114-13.082,280.822-17.434c90.791-4.224,181.591-8.742,272.403-12.664c72.4-3.132,156.294,9.112,226.001-12.946
			c25.473-8.078,23.835-41.298,0-50.01c-74-26.996-159.055-27.035-236.782-33.103c-91.669-7.161-183.114-9.083-275.008-8.527
			c-90.479,0.555-180.909,4.429-271.105,11.405c-84.742,6.547-170.86,28.039-255.739,25.903c2.302,16.976,4.595,33.941,6.897,50.927
			c166.929-38.264,336.842-56.664,507.156-72.078c160.987-14.576,323.525-12.518,483.712-35.181
			c29.893-4.234,21.162-50.205-6.897-50.928c-171.68-4.488-342.413-24.186-513.927-29.981c-87.61-2.956-175.406,2.683-262.705,9.581
			c-73.055,5.776-147.348,5.474-219.427,19.62c-28.517,5.6-22.235,53.815,6.888,50.928c151.64-15.034,301.603-42.166,452.589-62.177
			c157.865-20.927,316.94-26.02,475.292-41.679c32.704-3.229,34.01-51.113,0-51.844c-287.525-6.127-575.225-48.84-861.559-2.479
			c4.585,16.664,9.18,33.338,13.785,50.001c123.211-30.927,250.178-33.415,376.179-43.356
			c66.869-5.269,133.455-13.806,200.373-18.791c57.337-4.263,115.991-1.814,172.557-12.771c22.488-4.361,24.732-36.878,6.186-47.395
			c-76.997-43.62-190.226-42.762-276.208-47.581c-118.967-6.674-237.699,2.42-356.579,6.605c2.293,16.966,4.586,33.942,6.888,50.928
			c84.099-15.415,166.255-40.723,250.695-54.128c42.127-6.684,84.752-10.517,127.172-14.771c33.396-3.347,65.035-1.327,97.133-12.83
			c23.356-8.371,26.03-42.752,0-50.001C709.437,75.019,653.436,76.15,597.923,77.867c-54.517,1.688-113.405-3.092-165.006,17.269
			C402.194,107.252,415.56,157.41,446.702,145.136L446.702,145.136z"/>
		<path fill="#f17a7e" d="M446.702,128.97c42.986-16.957,90.235-13.415,135.66-14.898c55.864-1.795,112.811-5.347,167.231,9.794
			c0-16.663,0-33.337,0-50.001c-33.044,11.855-68.02,9.445-102.499,12.908c-40.723,4.078-81.317,8.859-121.825,14.693
			c-84.508,12.186-166.695,38.723-250.686,54.118c-29.015,5.327-21.981,51.943,6.897,50.928
			c106.128-3.727,212.09-11.18,318.364-8.527c55.006,1.376,110.567,5.561,165.065,13.035c39.571,5.424,87.952,9.434,123.191,29.404
			c2.069-15.795,4.117-31.59,6.186-47.385c-64.323,12.458-133.514,8.712-198.841,14.048c-65.445,5.356-130.617,13.6-196.109,18.39
			c-118.85,8.692-238.051,13.337-354.15,42.479c-33.064,8.302-18.479,55.22,13.785,50.001
			c281.115-45.523,565.469-1.688,847.774,4.322c0-17.288,0-34.557,0-51.845c-151.786,15.005-304.169,20.683-455.653,39.171
			c-157.757,19.249-314.012,48.996-472.228,64.674c2.312,16.976,4.595,33.951,6.897,50.927
			c73.63-14.458,151.065-13.454,225.797-19.356c87.493-6.917,175.134-10.273,262.89-7.307
			c164.695,5.561,328.686,24.976,493.586,29.288c-2.303-16.976-4.586-33.941-6.897-50.927
			C892.726,400.749,720.812,398.3,551.425,413.88c-161.562,14.84-322.822,34.01-481.146,70.284
			c-29.269,6.721-21.698,50.215,6.888,50.927c78.947,1.991,157.952-17.229,236.431-24.292
			c90.137-8.107,180.674-11.473,271.134-12.81c85.114-1.24,169.944,0.146,254.891,5.522c85.239,5.386,181.513,4.547,262.383,34.069
			c0-16.674,0-33.338,0-50.011c-37.63,11.922-76.801,8.117-115.699,7.6c-44.898-0.594-90.303,3.21-135.162,5.21
			c-91.22,4.078-182.451,8.313-273.641,12.879c-93.835,4.712-187.524,11.835-281.251,18.322
			c-75.699,5.239-154.598,5.063-227.671,27.492c-23.054,7.083-26.439,44.83,0,50.011c34.81,6.8,68.225,4.166,103.367,0.917
			c44.478-4.107,89.825-1.883,134.46-2.264c96.127-0.829,192.216-1.707,288.334,1.181c95.064,2.848,190.031,8.829,285.036,13.61
			c37.22,1.873,73.932,3.259,111.181,1.746c38.508-1.57,84.148-7.229,120.168,9.434c0-14.927,0-29.853,0-44.781
			c-59.367,30.372-145.748,19.913-211.046,25.708c-91.962,8.146-184.11,14.243-276.257,19.629
			c-171.572,10.029-345.496,18.4-512.687,61.015c-28.05,7.151-22.625,52.547,6.897,50.928
			c180.002-9.893,359.174-9.337,539.254-12.293c70.879-1.161,141.728-3.639,212.617-3.883c32.136-0.097,64.264,0.595,96.362,2.362
			c28.195,1.55,103.777-5.873,118.284,23.756c5.161-12.683,10.322-25.385,15.493-38.078
			c-172.196,65.532-359.194,20.03-537.059,39.902c-73.035,8.156-146.031,12.83-219.251,19.424
			c-64.225,5.796-133.611,13.415-190.07,46.977c-15.278,9.083-18.478,36.596,0,44.781c96.83,42.869,235.768,13.073,335.651,6.907
			c88.333-5.464,177.017-4.507,265.456-3.425c78.655,0.957,173.416-12.253,248.481,13.961c-2.068-15.805-4.127-31.6-6.185-47.395
			c-44.84,21.463-122.285,4.848-170.91,5.268c-71.024,0.605-141.962,3.63-212.704,9.932
			c-128.284,11.434-254.793,31.834-381.009,57.23c-28.81,5.804-22.117,52.137,6.888,50.927
			c121.152-5.024,242.831-0.829,364.111-3.677c94.752-2.244,195.084-12.811,289.544-1.6c-2.283-16.976-4.586-33.951-6.888-50.928
			c-81.074,15.737-164.714,12.635-246.636,21.356c-94.264,10.03-190.626,22.635-283.163,43.376
			c-28.507,6.401-22.322,52.352,6.878,50.928c160.167-7.766,323.272-31.824,483.107-8.42c-2.068-15.795-4.127-31.6-6.195-47.385
			c-115.748,59.463-264.247,51.854-389.496,79.493c-30.254,6.683-20.703,48.644,6.897,50.927
			c105.679,8.781,203.377,49.104,308.003,9.034c30.898-11.834,17.502-61.981-13.776-50c-98.811,37.853-194.226-2.577-294.227-10.879
			c2.303,16.966,4.586,33.942,6.897,50.928c130.938-28.928,280.647-22.449,401.868-84.743c18.693-9.6,16.224-44.097-6.185-47.385
			c-165.114-24.157-331.418-1.435-496.892,6.585c2.312,16.977,4.605,33.942,6.897,50.928
			c96.761-21.698,197.778-35.376,296.559-44.195c77.767-6.946,156.353-5.63,233.25-20.547c31.162-6.058,19.757-47.766-6.897-50.927
			c-94.46-11.21-194.792-0.634-289.544,1.599c-121.28,2.859-242.959-1.346-364.111,3.688c2.312,16.975,4.595,33.941,6.897,50.927
			c140.792-28.332,281.876-50.059,425.234-59.981c70.762-4.897,141.806-5.532,212.704-5.63
			c47.854-0.068,94.255,9.396,139.064-12.048c21.883-10.488,13.093-40.664-6.185-47.395
			c-58.235-20.322-120.011-13.552-180.558-14.537c-88.537-1.435-177.046-2.712-265.592-1.103
			c-88.099,1.6-175.905,10.371-263.896,14.723c-37.151,1.824-92.888,3.882-127.172-11.298c0,14.927,0,29.854,0,44.781
			c60.011-35.688,138.089-38.225,205.895-43.386c72.225-5.473,144.002-13.766,216.08-19.727
			c170.548-14.077,346.911,24.869,512.025-37.97c16.351-6.225,23.336-22.06,15.502-38.088
			c-26.927-54.996-112.167-45.922-163.065-49.435c-83.133-5.756-167.163-1.746-250.364,0.244
			c-199.524,4.761-398.394,2.595-597.869,13.571c2.293,16.967,4.586,33.942,6.887,50.928
			c175.514-44.742,358.287-50.703,538.288-61.504c92.177-5.542,184.265-12.439,276.217-20.849
			c66.372-6.078,136.724,2.039,197.866-29.23c16.42-8.39,17.454-36.693,0-44.781c-54.069-25.025-115.572-17.434-173.436-15.493
			c-95.191,3.191-192.333-8.682-287.436-13.141c-102.743-4.809-205.426-5.736-308.257-4.966
			c-48.098,0.371-96.206,0.908-144.303,1.093c-46.508,0.186-95.553,11.649-141.504,2.653c0,16.674,0,33.337,0,50.011
			c80.703-24.781,170.528-22.615,254.217-28.458c93.562-6.518,187.114-13.083,280.822-17.435
			c90.791-4.224,181.591-8.742,272.403-12.663c72.4-3.132,156.294,9.112,226.001-12.946c25.473-8.078,23.835-41.298,0-50.011
			c-74-26.995-159.055-27.035-236.782-33.103c-91.669-7.161-183.114-9.083-275.008-8.527c-90.479,0.556-180.909,4.43-271.105,11.405
			c-84.742,6.547-170.86,28.04-255.739,25.903c2.302,16.976,4.595,33.941,6.897,50.927
			c166.929-38.263,336.842-56.663,507.156-72.078c160.987-14.576,323.525-12.517,483.712-35.181
			c29.893-4.234,21.162-50.205-6.897-50.927c-171.68-4.489-342.413-24.186-513.927-29.981c-87.61-2.956-175.406,2.682-262.705,9.581
			c-73.055,5.775-147.348,5.473-219.427,19.619c-28.517,5.601-22.235,53.816,6.888,50.928
			c151.64-15.035,301.603-42.166,452.589-62.176c157.865-20.928,316.94-26.02,475.292-41.679c32.704-3.23,34.01-51.113,0-51.845
			c-287.525-6.127-575.225-48.839-861.559-2.478c4.585,16.664,9.18,33.337,13.785,50.001
			C282.183,287.03,409.15,284.542,535.151,274.6c66.869-5.268,133.455-13.805,200.373-18.79
			c57.337-4.264,115.991-1.815,172.557-12.772c22.488-4.361,24.732-36.878,6.186-47.395
			c-76.997-43.62-190.226-42.762-276.208-47.581c-118.967-6.674-237.699,2.42-356.579,6.604c2.293,16.967,4.586,33.942,6.888,50.928
			c84.099-15.415,166.255-40.723,250.695-54.128c42.127-6.683,84.752-10.517,127.172-14.771c33.396-3.347,65.035-1.327,97.133-12.83
			c23.356-8.371,26.03-42.752,0-50.001c-53.932-15.014-109.933-13.883-165.446-12.165c-54.517,1.687-113.405-3.093-165.006,17.268
			C402.194,91.087,415.56,141.243,446.702,128.97L446.702,128.97z"/>
	</g>
	<g>
		<rect x="397.043" y="476.964" fill="#FFFFFF" width="94.908" height="292.168"/>
		<path fill="#FFFFFF" d="M544.859,768.039V477.422h86.118v38.752c0,0,24.4-48.089,87.552-46.645
			c0,0,101.875-10.751,106.919,105.475v193.768h-89.699V599.413c0,0-1.443-55.971-51.668-49.522c0,0-43.064-2.147-48.108,52.39
			v165.758H544.859z"/>
		<path fill="#FFFFFF" d="M496.068,384.846c0,29.347-23.776,53.103-53.103,53.103c-29.327,0-53.113-23.756-53.113-53.103
			c0-29.328,23.786-53.094,53.113-53.094C472.292,331.752,496.068,355.518,496.068,384.846z"/>
	</g>
</g>
</svg>
