<svg id="Component_8_14" data-name="Component 8 – 14" xmlns="http://www.w3.org/2000/svg" width="78.901" height="83.596" viewBox="0 0 78.901 83.596">
  <path id="Path_44" data-name="Path 44" d="M39.25,0C60.83-15.579,65.869,29.148,74.479,33.453S55.37,90.675,39.25,78.5C23.776,66.814-3.533,86.476,1.355,42.962.967,41.953.484,40.636,0,39.25-12.112,4.625,17.671,15.579,39.25,0Z" transform="translate(2.802 3.281)" fill="#4a6163"/>
  <g id="noun_doodle_e_mail_2035332" data-name="noun_doodle e mail_2035332" transform="translate(12.349 6.938)">
    <g id="STROKE_722BDC39-2447-4BBF-A577-BAA4FEE046E4" data-name="STROKE 722BDC39-2447-4BBF-A577-BAA4FEE046E4" transform="translate(4.142 23.338)">
      <path id="Path_45" data-name="Path 45" d="M9.052,25.377a.752.752,0,1,1-.058-1.5c7.862-.609,16.06-.558,23.985-.51,2.363.015,4.714.026,7.037.027h.05c1.239,0,2.621.056,4.084.115,1.769.071,3.6.146,5.111.109a.764.764,0,0,1,.769.733.751.751,0,0,1-.732.774c-1.56.038-3.415-.038-5.208-.11-1.466-.059-2.861-.113-4.072-.113q-3.5,0-7.049-.027c-7.9-.05-16.059-.1-23.86.506Z" transform="translate(-8.271 -23.338)" fill="#f9faf4"/>
    </g>
    <g id="STROKE_C6F0D454-524D-41DF-A6EF-053761FD66E8" data-name="STROKE C6F0D454-524D-41DF-A6EF-053761FD66E8" transform="translate(44.149 23.617)">
      <path id="Path_46" data-name="Path 46" d="M88.918,50.316h-.007a.751.751,0,0,1-.745-.758c.036-4.376.086-9.047.136-13.69.042-3.822.083-7.625.115-11.229a.751.751,0,0,1,.751-.744h.007a.751.751,0,0,1,.744.758c-.032,3.605-.074,7.408-.115,11.232-.05,4.641-.1,9.31-.136,13.686A.751.751,0,0,1,88.918,50.316Z" transform="translate(-88.167 -23.895)" fill="#f9faf4"/>
    </g>
    <g id="STROKE_92255FD9-243C-4AA9-8B32-53E0AEC6D81D" data-name="STROKE 92255FD9-243C-4AA9-8B32-53E0AEC6D81D" transform="translate(4.975 47.797)">
      <path id="Path_47" data-name="Path 47" d="M49.861,74.424a.753.753,0,0,1-.1-.007,103.123,103.123,0,0,0-13.1-.6l-1.874-.008c-1.467-.009-2.911-.035-4.347-.061-3.487-.062-6.781-.122-10.25.056-1.183.061-2.349.079-3.477.1a52.7,52.7,0,0,0-5.927.315.751.751,0,1,1-.189-1.49,54.451,54.451,0,0,1,6.093-.326c1.114-.018,2.267-.036,3.423-.1,3.523-.181,6.841-.121,10.354-.058,1.43.026,2.869.05,4.329.06l1.87.008a104.08,104.08,0,0,1,13.3.612.751.751,0,0,1-.1,1.5Z" transform="translate(-9.935 -72.183)" fill="#f9faf4"/>
    </g>
    <g id="STROKE_1E4F7F43-C161-4B81-A3D9-B96032E01B54" data-name="STROKE 1E4F7F43-C161-4B81-A3D9-B96032E01B54" transform="translate(4.171 23.859)">
      <path id="Path_48" data-name="Path 48" d="M9.886,50.355H9.861a.751.751,0,0,1-.727-.775c.163-5.153.14-9.327-.073-13.137-.116-2.075-.255-4.1-.39-6.065-.117-1.707-.235-3.417-.34-5.188a.751.751,0,1,1,1.5-.089c.105,1.767.222,3.473.339,5.174.135,1.966.275,4,.392,6.084.215,3.856.238,8.071.074,13.27a.751.751,0,0,1-.75.727Z" transform="translate(-8.33 -24.378)" fill="#f9faf4"/>
    </g>
    <g id="STROKE_53206E65-84C7-4E2A-8FA1-608D9983509C" data-name="STROKE 53206E65-84C7-4E2A-8FA1-608D9983509C" transform="translate(4.172 23.874)">
      <path id="Path_49" data-name="Path 49" d="M29.608,39.057a.751.751,0,0,1-.386-.106C22.706,35.045,15.98,30.739,8.662,25.782A.751.751,0,1,1,9.5,24.537c7.3,4.941,14,9.234,20.491,13.123a.751.751,0,0,1-.386,1.4Z" transform="translate(-8.331 -24.408)" fill="#f9faf4"/>
    </g>
    <g id="STROKE_C53E5BCB-91D3-4A7F-A44E-2AC6D8DEAA1B" data-name="STROKE C53E5BCB-91D3-4A7F-A44E-2AC6D8DEAA1B" transform="translate(24.698 23.617)">
      <path id="Path_50" data-name="Path 50" d="M50.075,38.8a.751.751,0,0,1-.5-1.313l.223-.2a86.811,86.811,0,0,1,9.443-7.611,80.7,80.7,0,0,1,10.215-5.712.751.751,0,0,1,.641,1.359,79.226,79.226,0,0,0-10.022,5.6A85.593,85.593,0,0,0,50.8,38.414l-.224.2A.747.747,0,0,1,50.075,38.8Z" transform="translate(-49.323 -23.894)" fill="#f9faf4"/>
    </g>
    <g id="STROKE_4EF736DB-79D1-475C-9732-F86957C98E37" data-name="STROKE 4EF736DB-79D1-475C-9732-F86957C98E37" transform="translate(4.976 33.087)">
      <path id="Path_51" data-name="Path 51" d="M10.687,59.556a.751.751,0,0,1-.583-1.224c3.682-4.544,8.724-10.766,13.289-15.307a.751.751,0,1,1,1.059,1.065c-4.507,4.483-9.52,10.67-13.181,15.187A.748.748,0,0,1,10.687,59.556Z" transform="translate(-9.937 -42.808)" fill="#f9faf4"/>
    </g>
    <g id="STROKE_DEAC1D84-9B6A-4EC1-9555-29E36C384C1D" data-name="STROKE DEAC1D84-9B6A-4EC1-9555-29E36C384C1D" transform="translate(31.094 31.583)">
      <path id="Path_52" data-name="Path 52" d="M75.9,58.258a.751.751,0,0,1-.578-.27c-4.782-5.735-9.555-11.933-13.093-17a.751.751,0,1,1,1.232-.859c3.515,5.037,8.259,11.2,13.015,16.9a.751.751,0,0,1-.576,1.232Z" transform="translate(-62.096 -39.803)" fill="#f9faf4"/>
    </g>
    <g id="STROKE_823E3139-115D-4650-9DC6-E6380F04FD96" data-name="STROKE 823E3139-115D-4650-9DC6-E6380F04FD96" transform="translate(21.728 27.3)">
      <path id="Path_53" data-name="Path 53" d="M45.809,37.066a2.417,2.417,0,0,1-2.362-1.9,3.029,3.029,0,0,1,1.171-3,5.86,5.86,0,0,1,2.954-.893l.13-.012a.751.751,0,1,1,.17,1.493l-.131.015a4.833,4.833,0,0,0-2.207.59,1.563,1.563,0,0,0-.625,1.471.917.917,0,0,0,.932.741,5.284,5.284,0,0,0,1.675-.759c.209-.122.4-.234.568-.321a.751.751,0,1,1,.7,1.331c-.15.078-.32.178-.507.287a5.753,5.753,0,0,1-2.383.962Z" transform="translate(-43.392 -31.249)" fill="#f9faf4"/>
    </g>
    <g id="STROKE_DEC5B20B-1A37-4FD6-9966-AE65C28F4DF1" data-name="STROKE DEC5B20B-1A37-4FD6-9966-AE65C28F4DF1" transform="translate(19.805 25.359)">
      <path id="Path_54" data-name="Path 54" d="M43.82,36.882a5.408,5.408,0,0,1-1.6-.236A3.658,3.658,0,0,1,39.9,34.469a5.033,5.033,0,0,1,.22-4.144c1.047-1.929,4.356-3.59,6.585-2.71A4.042,4.042,0,0,1,48.793,30.5a3.286,3.286,0,0,1-.719,3.251,1.44,1.44,0,0,1-1.57.386c-1.029-.427-1.269-2.109-1.375-3.862l-.01-.156a.751.751,0,1,1,1.5-.107l.011.173a7.014,7.014,0,0,0,.416,2.471.453.453,0,0,0,.035-.03,1.911,1.911,0,0,0,.273-1.7c-.3-1.005-.6-1.676-1.2-1.914-1.472-.582-3.983.689-4.711,2.03a3.52,3.52,0,0,0-.15,2.86,2.169,2.169,0,0,0,1.374,1.308c1.72.531,3.672-.3,5.358-1.177a.751.751,0,1,1,.7,1.331A10.958,10.958,0,0,1,43.82,36.882Z" transform="translate(-39.552 -27.374)" fill="#f9faf4"/>
    </g>
    <text id="Created_by_Insticon" data-name="Created by Insticon" transform="translate(0 67.733)" fill="#f9faf4" font-size="1" font-family="Arial-BoldMT, Arial" font-weight="700"><tspan x="0" y="0">Created by Insticon</tspan></text>
    <text id="from_the_Noun_Project" data-name="from the Noun Project" transform="translate(0 70.237)" fill="#f9faf4" font-size="1" font-family="Arial-BoldMT, Arial" font-weight="700"><tspan x="0" y="0">from the Noun Project</tspan></text>
  </g>
</svg>